<svg xmlns="http://www.w3.org/2000/svg" width="62" height="62" viewBox="0 0 62 62" fill="none"><g clip-path="url(#clip0)"><path d="M55.8057 60.8445H6.80566C4.00566 60.8445 1.80566 58.6445 1.80566 55.8445V6.84448C1.80566 4.04448 4.00566 1.84448 6.80566 1.84448H55.8057C58.6057 1.84448 60.8057 4.04448 60.8057 6.84448V55.8445C60.8057 58.6445 58.6057 60.8445 55.8057 60.8445Z" stroke="#4F75FA" stroke-width="2" stroke-miterlimit="10"/><path d="M14.6057 50.3444V26.5444H19.9057V28.2444C19.2057 28.8444 19.0057 29.8444 19.3057 30.6444C19.6057 31.5444 20.5057 32.0444 21.4057 32.0444H29.8057C30.7057 32.0444 31.6057 31.4444 31.9057 30.6444C32.2057 29.8444 32.0057 28.8444 31.3057 28.2444V26.5444H33.4057V24.8444H11.8057V23.7444H33.6057V22.0444H11.6057C10.7057 22.0444 10.0057 22.7444 10.0057 23.6444V25.0444C10.0057 25.9444 10.7057 26.6444 11.6057 26.6444H12.9057V50.3444C12.9057 51.5444 13.9057 52.6444 15.2057 52.6444H20.3057V50.8444H15.2057C14.8057 50.8444 14.6057 50.6444 14.6057 50.3444ZM30.4057 29.9444C30.4057 30.2444 30.2057 30.5444 29.8057 30.5444H21.4057C21.1057 30.5444 20.8057 30.3444 20.8057 29.9444C20.8057 29.5444 21.0057 29.3444 21.4057 29.3444H29.8057C30.2057 29.3444 30.4057 29.6444 30.4057 29.9444ZM21.6057 27.6444V26.5444H29.7057V27.6444H21.6057Z" fill="#4F75FA"/><path d="M23.0057 50.3444V47.5444C23.0057 47.3444 23.1057 47.1444 23.2057 47.0444L33.5057 39.9444C33.6057 39.8444 33.7057 39.8444 33.8057 39.8444H37.4057V41.2444H39.1057V12.3444C39.1057 11.1444 38.1057 10.0444 36.8057 10.0444C35.6057 10.0444 34.5057 11.0444 34.5057 12.3444V38.1444H33.8057C33.3057 38.1444 32.9057 38.2444 32.5057 38.5444L22.2057 45.6444C21.6057 46.0444 21.2057 46.7444 21.2057 47.5444V50.3444C21.2057 51.5444 22.2057 52.6444 23.5057 52.6444H35.6057V50.8444H23.6057C23.3057 50.8444 23.0057 50.6444 23.0057 50.3444ZM36.4057 38.2444V36.4444H37.5057V38.2444H36.4057ZM36.4057 34.7444V12.3444C36.4057 12.0444 36.6057 11.7444 37.0057 11.7444C37.4057 11.7444 37.6057 11.9444 37.6057 12.3444V34.6444H36.4057V34.7444Z" fill="#4F75FA"/><path d="M52.4057 47.6444L49.2057 41.1444C48.9057 40.6444 48.4057 40.2444 47.8057 40.2444H47.0057V12.3444C47.0057 11.1444 46.0057 10.0444 44.7057 10.0444C43.5057 10.0444 42.4057 11.0444 42.4057 12.3444V40.2444H41.6057C41.0057 40.2444 40.5057 40.5444 40.2057 41.1444L37.0057 47.6444C36.8057 47.8444 36.8057 48.1444 36.8057 48.3444V50.2444C36.8057 51.4444 37.8057 52.5444 39.1057 52.5444H50.3057C51.5057 52.5444 52.6057 51.5444 52.6057 50.2444V48.3444C52.5057 48.1444 52.5057 47.8444 52.4057 47.6444ZM48.0057 48.0444V50.8444H46.9057V48.0444H45.2057V50.8444H44.1057V48.0444H42.4057V50.8444H41.3057V48.0444H39.6057V50.8444H39.0057C38.7057 50.8444 38.4057 50.6444 38.4057 50.2444V48.3444L41.6057 41.9444H42.3057V43.2444C42.3057 44.4444 43.3057 45.5444 44.6057 45.5444C45.8057 45.5444 46.9057 44.5444 46.9057 43.2444V41.9444H47.6057L50.8057 48.3444V50.2444C50.8057 50.5444 50.6057 50.8444 50.2057 50.8444H49.6057V48.0444H48.0057ZM45.2057 43.2444C45.2057 43.5444 45.0057 43.8444 44.6057 43.8444C44.2057 43.8444 44.0057 43.6444 44.0057 43.2444V40.5444H45.1057V43.2444H45.2057ZM44.1057 38.9444V12.3444C44.1057 12.0444 44.3057 11.7444 44.7057 11.7444C45.1057 11.7444 45.3057 11.9444 45.3057 12.3444V38.8444H44.1057V38.9444Z" fill="#4F75FA"/></g><defs><clipPath id="clip0"><rect width="61" height="61" fill="white" transform="translate(0.805664 0.844482)"/></clipPath></defs></svg>