<svg xmlns="http://www.w3.org/2000/svg" width="48" height="48" fill="none"><path d="M19.276.288a1.38 1.38 0 0 0-1.309 1.815c.037.109 3.558 10.974-1.617 16.15l-1.952 1.95c-2.355 2.357-2.648 6.006-.877 8.683L2.09 40.316a4.144 4.144 0 0 0 0 5.853 4.144 4.144 0 0 0 5.854 0l11.43-11.429a6.897 6.897 0 0 0 8.683-.878l1.951-1.951c5.178-5.178 16.041-1.653 16.15-1.617a1.38 1.38 0 0 0 1.815-1.31c0-7.665-2.985-14.871-8.405-20.291S26.942.288 19.277.288zM5.993 44.218a1.381 1.381 0 0 1-1.95 0 1.38 1.38 0 0 1 0-1.951l11.331-11.332 1.951 1.951L5.993 44.218zm20.112-12.307a4.137 4.137 0 0 1-5.853 0l-3.902-3.902a4.144 4.144 0 0 1 0-5.854l.975-.975 9.756 9.756-.976.975zm2.99-2.864l-9.882-9.882c3.878-5.022 2.723-12.564 1.892-16.054 1.866.13 3.678.46 5.415.967L25.8 6.96a28.642 28.642 0 0 1-1.183 3.661 1.38 1.38 0 1 0 2.562 1.024 31.48 31.48 0 0 0 1.297-4.016l.66-2.635a25.994 25.994 0 0 1 7.47 4.71l-4.849 4.848a1.38 1.38 0 1 0 1.952 1.951l4.848-4.848a26 26 0 0 1 4.71 7.47c-1.946.523-3.856.84-6.65 1.956a1.38 1.38 0 1 0 1.023 2.563c2.602-1.04 4.355-1.32 6.543-1.903a25.78 25.78 0 0 1 .967 5.415c-3.49-.831-11.033-1.986-16.054 1.892z" fill="#2476FE"/></svg>