<svg xmlns="http://www.w3.org/2000/svg" width="14" height="20" viewBox="0 0 14 20" fill="none">
<path d="M12.4303 9.38836C12.378 9.31001 12.1058 8.91618 11.6142 8.20665C11.1222 7.49699 10.6825 6.83965 10.295 6.23459C9.90761 5.62954 9.47463 4.85469 8.99568 3.9101C8.51701 2.96551 8.15543 2.08821 7.91186 1.27864C7.8421 1.01756 7.69647 0.812775 7.47421 0.664896C7.25255 0.516925 7.02838 0.442871 6.80205 0.442871C6.57573 0.442871 6.35375 0.516925 6.13607 0.66485C5.91835 0.812775 5.77042 1.01751 5.69207 1.2786C5.44827 2.08816 5.08692 2.96547 4.60815 3.91005C4.12943 4.85464 3.69627 5.62944 3.30884 6.23455C2.92142 6.83965 2.48172 7.49699 1.98987 8.20661C1.49797 8.91618 1.22591 9.31001 1.17372 9.38832C0.468535 10.5204 0.115967 11.7173 0.115967 12.9796C0.115967 14.8256 0.76896 16.4013 2.07481 17.7071C3.38066 19.0129 4.95633 19.666 6.80205 19.666C8.6476 19.666 10.2235 19.0131 11.5295 17.7071C12.8354 16.4009 13.4885 14.8253 13.4885 12.9796C13.4885 11.6911 13.1357 10.4941 12.4303 9.38836ZM6.31236 15.8331C5.98572 16.1596 5.59194 16.323 5.13037 16.323C4.66908 16.323 4.27507 16.1596 3.94857 15.8331C3.62212 15.5069 3.45878 15.1127 3.45878 14.6513C3.45878 14.3379 3.54596 14.0377 3.72001 13.7503C3.72883 13.7414 3.79616 13.6438 3.9225 13.4566C4.04874 13.2694 4.15976 13.1038 4.25554 12.9602C4.35141 12.8164 4.46027 12.625 4.58208 12.3855C4.70393 12.1461 4.79546 11.9263 4.85634 11.7264C4.89115 11.5871 4.98268 11.5171 5.1306 11.5171C5.27862 11.5171 5.3701 11.5871 5.40491 11.7264C5.46583 11.9263 5.55731 12.1461 5.67917 12.3855C5.80098 12.625 5.90984 12.8165 6.00562 12.9602C6.10131 13.1038 6.21223 13.2695 6.33856 13.4566C6.46472 13.6438 6.53218 13.7414 6.54106 13.7503C6.7151 14.0377 6.80215 14.3379 6.80215 14.6513C6.80205 15.1127 6.63871 15.5069 6.31236 15.8331Z" fill="#248CFE"/>
</svg>