<svg xmlns="http://www.w3.org/2000/svg" width="50" height="50" fill="none"><g clip-path="url(#clip0)" fill="#2476FE"><path d="M46.973 1.771c0-.755-.656-1.367-1.465-1.367H4.492c-.809 0-1.465.612-1.465 1.367v43.934c0 .755.656 1.367 1.465 1.367h41.016c.809 0 1.465-.612 1.465-1.367V1.77zm-2.93 20.6h-4.918c-4.128-6.243-5.002-14.808-5.162-19.233h10.08v19.233zM33.09 34.112c.05.05.103.098.161.142.174.148.354.288.543.42a7.17 7.17 0 0 0-1.47 1.372 7.168 7.168 0 0 0-1.47-1.371 7.154 7.154 0 0 0 1.47-1.372c.232.288.489.558.766.809zm.755-4.257a3.834 3.834 0 0 1-.056-.65c0-.755-.656-1.367-1.465-1.367s-1.465.613-1.465 1.368c0 2.261-1.971 4.101-4.394 4.101-.81 0-1.465.612-1.465 1.368 0 .755.656 1.367 1.465 1.367 2.423 0 4.394 1.84 4.394 4.101 0 .252.074.487.201.69a29.925 29.925 0 0 0-.057 3.503H19.138c.097-2.865.217-9.307-5.642-20.512 4.521-6.831 5.45-16.024 5.613-20.687h11.923c.162 4.663 1.091 13.856 5.612 20.687a66.526 66.526 0 0 0-2.8 6.03zM16.177 3.138c-.16 4.425-1.034 12.99-5.162 19.233H5.957V3.137h10.22zM5.957 25.105h4.949c5.557 10.66 5.39 16.622 5.3 19.232H5.958V25.105zm27.977 19.232c-.045-1.318-.106-3.298.427-6.14.006-.03.009-.062.013-.093.76-1.23 2.182-2.061 3.81-2.061.809 0 1.464-.612 1.464-1.367 0-.756-.655-1.368-1.464-1.368a4.602 4.602 0 0 1-2.307-.612c.847-2.388 1.972-4.934 3.358-7.591h4.808v19.232H33.934z"/><path d="M30.86 17.726c-2.424 0-4.395-1.932-4.395-4.307 0-.793-.656-1.435-1.465-1.435-.81 0-1.465.643-1.465 1.435 0 2.375-1.971 4.307-4.394 4.307-.81 0-1.465.643-1.465 1.436 0 .793.655 1.435 1.465 1.435 2.423 0 4.394 1.932 4.394 4.307 0 .793.656 1.435 1.465 1.435.81 0 1.465-.642 1.465-1.435 0-2.375 1.971-4.307 4.394-4.307.81 0 1.465-.643 1.465-1.435 0-.793-.655-1.436-1.465-1.436zM25 20.602a7.304 7.304 0 0 0-1.47-1.44 7.307 7.307 0 0 0 1.47-1.44c.418.545.913 1.03 1.47 1.44a7.315 7.315 0 0 0-1.47 1.44z"/></g><defs><clipPath id="clip0"><path fill="#fff" transform="translate(0 .404)" d="M0 0h50v49H0z"/></clipPath></defs></svg>