<svg xmlns="http://www.w3.org/2000/svg" width="62" height="61" viewBox="0 0 62 61" fill="none"><g clip-path="url(#clip0)"><path d="M55.5898 60H6.58984C3.78984 60 1.58984 57.8 1.58984 55V6C1.58984 3.2 3.78984 1 6.58984 1H55.5898C58.3898 1 60.5898 3.2 60.5898 6V55C60.5898 57.8 58.3898 60 55.5898 60Z" stroke="#4F75FA" stroke-width="2" stroke-miterlimit="10"/><path d="M41.9899 6.19995H24.9899C24.7899 6.19995 24.5899 6.29995 24.3899 6.49995C24.1899 6.69995 24.1899 6.89995 24.1899 7.09995V7.19995H23.3899C21.9899 7.19995 20.8899 8.19995 20.8899 9.49995C20.8899 10.8 21.9899 11.8 23.3899 11.8H24.1899V12C24.1899 12.5 24.5899 12.9 24.9899 12.9H28.0899C27.9899 14.1 27.3899 16.4 25.1899 17.5C24.7899 17.7 24.6899 18.1 24.6899 18.5C24.7899 18.9 25.0899 19.2 25.4899 19.2C25.5899 19.2 25.7899 19.2 25.8899 19.1C28.9899 17.6 29.6899 14.5 29.7899 13H33.5899V14.6H32.2899C31.7899 14.6 31.3899 15 31.3899 15.4V18.3C31.3899 18.8 31.7899 19.1 32.2899 19.1H32.4899V21.3C32.4899 23.2 31.2899 24.8 29.3899 25.4C26.4899 26.2 23.9899 28 22.1899 30.2999C20.3899 32.6999 19.2899 35.7 19.2899 38.7V54C19.2899 54.5 19.6899 54.8 20.1899 54.9H40.7899C41.2899 54.9 41.5899 54.5 41.5899 54V32.0999C41.5899 27.5999 40.8899 22.7 39.5899 19C39.9899 18.9 40.2899 18.6 40.2899 18.2V15.3C40.2899 14.8 39.9899 14.5 39.4899 14.5H38.1899V12.9H41.8899C42.3899 12.9 42.7899 12.5 42.7899 12V7.09995C42.7899 6.59995 42.3899 6.29995 41.9899 6.19995ZM41.0899 7.99995V11.2H25.8899V7.99995H41.0899ZM36.5899 12.9V14.5H35.2899V12.9H36.5899ZM34.0899 21.2V19H37.7899C39.0899 22.6 39.8899 27.5999 39.8899 32.0999V53H21.0899V38.5999C21.0899 35.8999 21.9899 33.3 23.5899 31.2C25.1899 29.1 27.3899 27.6 29.8899 26.9C32.3899 26.2 34.0899 23.8 34.0899 21.2ZM33.0899 17.4V16.2H38.5899V17.4H33.0899ZM24.0899 8.99995V10.2H23.2899C22.8899 10.2 22.4899 9.99995 22.4899 9.59995C22.5899 9.09995 22.9899 8.99995 23.3899 8.99995H24.0899Z" fill="#4F75FA"/><path d="M24.4899 38.7001V49.6C24.4899 50.1 24.8899 50.4001 25.3899 50.4001H36.9899C37.4899 50.4001 37.8899 50 37.8899 49.6V35.6C37.8899 35.2 37.4899 34.8 36.9899 34.8H28.5899C26.2899 34.8 24.4899 36.5001 24.4899 38.7001ZM36.0899 48.8H26.1899V38.8C26.1899 37.5 27.2899 36.5 28.5899 36.5H36.0899V48.8Z" fill="#4F75FA"/><path d="M27.2899 42.9C27.2899 43.4 27.6899 43.8 28.1899 43.8H34.0899C34.6899 43.8 34.9899 43.4 34.9899 42.9C34.9899 42.4 34.5899 42 34.0899 42H28.1899C27.6899 42 27.2899 42.4 27.2899 42.9Z" fill="#4F75FA"/><path d="M34.0899 44.5999H29.2899C28.6899 44.5999 28.3899 44.9999 28.3899 45.4999C28.3899 45.9999 28.6899 46.3999 29.2899 46.3999H34.0899C34.6899 46.3999 34.9899 45.9999 34.9899 45.4999C34.9899 44.9999 34.5899 44.5999 34.0899 44.5999Z" fill="#4F75FA"/></g><defs><clipPath id="clip0"><rect width="61" height="61" fill="white" transform="translate(0.589844)"/></clipPath></defs></svg>