<svg xmlns="http://www.w3.org/2000/svg" width="62" height="62" viewBox="0 0 62 62" fill="none"><path d="M55.7666 60.8501H6.7666C3.9666 60.8501 1.7666 58.6501 1.7666 55.8501V6.8501C1.7666 4.0501 3.9666 1.8501 6.7666 1.8501H55.7666C58.5666 1.8501 60.7666 4.0501 60.7666 6.8501V55.8501C60.7666 58.6501 58.5666 60.8501 55.7666 60.8501Z" stroke="#4F75FA" stroke-width="2" stroke-miterlimit="10"/><path d="M49.7666 28.3501V14.8501C49.7666 14.4501 49.4666 14.0501 49.1666 13.9501L31.8666 8.0501C31.6666 7.9501 31.4666 7.9501 31.2666 8.0501C31.0666 7.9501 30.8666 7.9501 30.6666 8.0501L13.2666 13.9501C12.9666 14.1501 12.7666 14.4501 12.7666 14.8501V28.2501C12.7666 28.4501 12.2666 48.0501 30.8666 54.5501C30.9666 54.5501 31.0666 54.5501 31.1666 54.5501H31.4666C31.5666 54.5501 31.6666 54.5501 31.7666 54.5501C50.2666 48.1501 49.7666 28.6501 49.7666 28.3501ZM31.2666 52.7501C14.1666 46.6501 14.5666 29.0501 14.5666 28.3501V15.5501L31.2666 9.8501L47.9666 15.5501V28.3501C47.9666 28.5501 48.4666 46.7501 31.2666 52.7501Z" fill="#4F75FA"/><path d="M45.3666 18.1502C45.3666 17.7502 45.1666 17.3502 44.7666 17.2502L31.7666 12.6502C31.6666 12.6502 31.5666 12.5502 31.3666 12.6502C31.2666 12.6502 31.0666 12.6502 30.9666 12.6502L17.9666 17.2502C17.5666 17.3502 17.3666 17.7502 17.3666 18.1502V28.6502C17.3666 28.8502 17.9666 43.8502 31.0666 49.2502C31.1666 49.2502 31.2666 49.3502 31.3666 49.3502C31.4666 49.3502 31.5666 49.3502 31.6666 49.2502C44.7666 43.8502 45.3666 28.7502 45.3666 28.5502V18.1502ZM43.5666 28.5502C43.5666 28.6502 42.8666 42.3502 31.3666 47.2502C19.7666 42.3502 19.1666 28.7502 19.1666 28.5502V18.7502L31.3666 14.4502L43.5666 18.7502V28.5502Z" fill="#4F75FA"/><path d="M30.0666 36.7501L24.1666 30.2501C23.9666 30.0501 23.7666 29.9501 23.5666 29.9501C23.3666 29.9501 23.0666 30.0501 22.9666 30.2501C22.5666 30.6501 22.5666 31.2501 22.9666 31.5501L29.5666 38.8501C29.7666 39.0501 29.9666 39.1501 30.2666 39.1501C30.5666 39.1501 30.7666 39.0501 30.9666 38.8501L40.8666 26.3501C41.1666 25.9501 41.1666 25.3501 40.7666 25.0501C40.5666 24.8501 40.3666 24.8501 40.0666 24.8501C39.8666 24.8501 39.5666 24.9501 39.4666 25.1501L30.0666 36.7501Z" fill="#4F75FA"/></svg>