<svg xmlns="http://www.w3.org/2000/svg" width="39" height="39" fill="none"><g clip-path="url(#clip0)" fill="#fff"><path d="M6.972 12.666H2.01c-.682 0-1.24.556-1.24 1.241v22.331c0 .685.555 1.24 1.24 1.24h4.962a1.24 1.24 0 0 0 1.241-1.24v-22.33c0-.686-.558-1.242-1.24-1.242zm28.7 0c-.2-.033-9.555 0-9.555 0l1.307-3.564c.901-2.462.318-6.222-2.184-7.558-.815-.436-1.953-.654-2.87-.423a2.07 2.07 0 0 0-1.265.947c-.317.537-.284 1.164-.397 1.759-.286 1.51-1 2.945-2.104 4.023-1.926 1.878-7.91 7.298-7.91 7.298v19.85h20.677c2.79.001 4.619-3.115 3.243-5.548 1.64-1.05 2.2-3.264 1.24-4.963 1.64-1.05 2.202-3.263 1.24-4.962 2.831-1.813 1.885-6.3-1.422-6.858z"/></g><defs><clipPath id="clip0"><path fill="#fff" transform="translate(.77 .253)" d="M0 0h38v38H0z"/></clipPath></defs></svg>