<svg xmlns="http://www.w3.org/2000/svg" width="41" height="37" fill="none"><path d="M16.83.53c9.205 0 16.667 6.19 16.667 13.826 0 7.635-7.462 13.825-16.667 13.825-.884 0-1.752-.058-2.598-.168-3.58 3.655-7.715 4.31-11.846 4.407v-.895c2.23-1.116 4.027-3.148 4.027-5.471a6.55 6.55 0 0 0-.07-.954c-3.77-2.534-6.18-6.406-6.18-10.744C.163 6.72 7.625.53 16.83.53zm17.917 30.99c0 1.99 1.26 3.733 3.194 4.69v.766c-3.58-.082-6.868-.644-9.97-3.777-.734.094-1.486.144-2.252.144-3.315 0-6.368-.917-8.806-2.457 5.023-.018 9.766-1.668 13.362-4.65 1.813-1.505 3.243-3.269 4.25-5.245a14.482 14.482 0 0 0 1.567-7.743c2.52 2.133 4.071 5.04 4.071 8.245 0 3.719-2.088 7.037-5.355 9.21-.04.266-.061.539-.061.817z" fill="#fff"/></svg>