<svg xmlns="http://www.w3.org/2000/svg" width="39" height="34" fill="none"><path d="M38.052 12.415c-.047.236-.05.48-.14.703-.543 1.308-1.556 2.391-2.303 3.597-.964 1.539-9.146-1.777-8.092-3.832.398-.76 1.946-2.858 2.064-3.701.106-.752-.89-1.342-1.811-1.418-2.428-.196-5.533-.019-8.111-.002v.002l-.214-.001h-.215v-.001c-2.579-.017-5.682-.194-8.11.002-.921.076-1.918.666-1.811 1.419.116.843 1.666 2.942 2.063 3.701 1.057 2.055-7.13 5.37-8.092 3.832-.75-1.205-1.76-2.289-2.302-3.597-.092-.223-.095-.468-.142-.703-1.2-5.365 3.427-10.839 10.394-11.4 2.662-.216 5.33-.338 8-.385V.616c.072.002.143.007.215.008.071-.001.142-.006.214-.008V.63c2.67.048 5.337.169 7.999.386 6.968.56 11.595 6.036 10.394 11.4zm-4.784 18.511c.075 1.288-.765 2.338-1.875 2.338H7.495c-1.106 0-1.95-1.052-1.874-2.338l.698-11.734c2.532-.593 5.769-2.143 6.943-4.067.654-1.072.724-2.279.186-3.325-.136-.26-.39-.669-.683-1.124l-.001-.002-.015-.035h13.007c-.006.019-.008.022-.02.048-.162.393-.218.694-.187.922-.037.066-.09.15-.118.204-.53 1.032-.461 2.24.193 3.31 1.174 1.927 4.408 3.473 6.94 4.067l.704 11.736zm-9.253-12.18a6.43 6.43 0 0 0-9.082 0 6.428 6.428 0 0 0 0 9.082c2.267 2.267 5.816 2.474 8.326.638l-1.57-1.568a4.242 4.242 0 0 1-5.218-.609 4.25 4.25 0 0 1 .002-6.004 4.25 4.25 0 0 1 6.004 0c1.408 1.409 1.607 3.561.618 5.194l1.572 1.572c1.822-2.51 1.607-6.044-.652-8.304z" fill="#fff"/></svg>