<svg xmlns="http://www.w3.org/2000/svg" width="62" height="62" viewBox="0 0 62 62" fill="none"><path d="M55.5898 60.2607H6.58984C3.78984 60.2607 1.58984 58.0607 1.58984 55.2607V6.26074C1.58984 3.46074 3.78984 1.26074 6.58984 1.26074H55.5898C58.3898 1.26074 60.5898 3.46074 60.5898 6.26074V55.2607C60.5898 58.0607 58.3898 60.2607 55.5898 60.2607Z" stroke="#4F75FA" stroke-width="2" stroke-miterlimit="10"/><path d="M51.1898 20.6606L42.8898 12.1606H32.2898L28.1898 16.2606C17.8898 15.4606 9.68983 21.2606 9.58983 21.2606C9.38983 21.3606 9.28983 21.5606 9.18983 21.8606C9.08983 22.1606 9.18983 22.3606 9.38983 22.5606C9.68983 22.9606 10.2898 23.0606 10.5898 22.7606C10.6898 22.7606 17.3898 17.9606 26.0898 17.9606C26.1898 17.9606 26.2898 17.9606 26.3898 17.9606L8.88983 35.4606L27.6898 54.3606L27.7898 54.4606L35.2898 46.9606C36.7898 47.7606 38.4898 48.1606 40.3898 48.1606C43.0898 48.1606 45.6898 47.2606 47.2898 45.6606C52.6898 40.2606 50.7898 34.2606 49.8898 32.4606L51.1898 31.1606V20.6606ZM27.7898 51.9606L11.3898 35.4606L14.5898 32.2606L30.9898 48.6606L27.7898 51.9606ZM45.9898 44.3606C44.1898 46.1606 40.0898 47.0606 36.6898 45.6606L48.5898 33.8606C49.1898 35.6606 50.1898 40.1606 45.9898 44.3606ZM49.3898 30.3606L34.9898 44.6606C32.0898 42.4606 31.1898 38.4606 32.5898 33.2606C32.6898 33.0606 32.5898 32.7606 32.4898 32.5606C32.3898 32.3606 32.1898 32.1606 31.9898 32.1606C31.7898 32.0606 31.4898 32.1606 31.2898 32.2606C31.0898 32.3606 30.8898 32.5606 30.8898 32.8606C28.9898 40.2606 31.3898 44.0606 33.7898 45.9606L32.2898 47.4606L15.8898 31.0606L28.8898 18.0606C32.1898 18.4606 35.3898 19.5606 38.3898 21.4606C38.3898 21.6606 38.3898 21.7606 38.3898 21.8606C38.3898 23.5606 39.7898 24.9606 41.4898 24.9606C43.1898 24.9606 44.5898 23.5606 44.5898 21.8606C44.5898 20.1606 43.1898 18.7606 41.4898 18.7606C40.5898 18.7606 39.7898 19.1606 39.1898 19.7606C36.4898 18.0606 33.5898 16.9606 30.4898 16.4606L33.0898 13.8606H42.1898L49.4898 21.1606V30.3606H49.3898ZM41.1898 21.1606C41.0898 21.0606 40.8898 20.9606 40.7898 20.8606C40.7898 20.8606 40.6898 20.8606 40.6898 20.7606C40.8898 20.5606 41.1898 20.5606 41.4898 20.5606C42.1898 20.5606 42.7898 21.1606 42.7898 21.8606C42.7898 22.5606 42.1898 23.1606 41.4898 23.1606C41.1898 23.1606 40.7898 23.0606 40.5898 22.7606C40.6898 22.7606 40.7898 22.7606 40.8898 22.7606C41.0898 22.7606 41.2898 22.5606 41.4898 22.4606C41.5898 22.2606 41.6898 22.0606 41.6898 21.7606C41.4898 21.5606 41.3898 21.3606 41.1898 21.1606Z" fill="#4F75FA"/></svg>