<svg xmlns="http://www.w3.org/2000/svg" width="62" height="62" viewBox="0 0 62 62" fill="none"><path d="M49.9057 11.05H18.6057C18.1057 11.05 17.7057 11.45 17.7057 11.95V30.05H9.40566C8.90566 30.05 8.50566 30.45 8.50566 30.95V46.35C8.50566 49.35 11.0057 51.85 14.0057 51.85H45.3057C48.3057 51.85 50.8057 49.35 50.8057 46.35V11.95C50.8057 11.45 50.4057 11.05 49.9057 11.05ZM10.3057 46.35V31.85H17.7057V46.35C17.7057 48.35 16.0057 50.05 14.0057 50.05C11.9057 50.05 10.3057 48.45 10.3057 46.35ZM49.0057 46.35C49.0057 48.35 47.3057 50.05 45.3057 50.05H18.1057C19.0057 49.05 19.5057 47.75 19.5057 46.35V12.85H49.0057V46.35Z" fill="#4F75FA"/><path d="M33.0057 21.55H44.7057C45.2057 21.55 45.6057 21.15 45.6057 20.65C45.6057 20.15 45.2057 19.75 44.7057 19.75H33.0057C32.5057 19.75 32.1057 20.15 32.1057 20.65C32.0057 21.15 32.5057 21.55 33.0057 21.55Z" fill="#4F75FA"/><path d="M33.0057 31.55H44.7057C45.2057 31.55 45.6057 31.15 45.6057 30.65C45.6057 30.15 45.2057 29.75 44.7057 29.75H33.0057C32.5057 29.75 32.1057 30.15 32.1057 30.65C32.0057 31.15 32.5057 31.55 33.0057 31.55Z" fill="#4F75FA"/><path d="M33.0057 41.55H44.7057C45.2057 41.55 45.6057 41.15 45.6057 40.65C45.6057 40.15 45.2057 39.75 44.7057 39.75H33.0057C32.5057 39.75 32.1057 40.15 32.1057 40.65C32.0057 41.15 32.5057 41.55 33.0057 41.55Z" fill="#4F75FA"/><path d="M24.6057 22.55C24.8057 22.75 25.0057 22.85 25.3057 22.85C25.6057 22.85 25.8057 22.75 26.0057 22.55L31.0057 17.05C31.3057 16.65 31.3057 16.15 30.9057 15.75C30.5057 15.45 30.0057 15.45 29.6057 15.85L25.3057 20.55L24.0057 19.15C23.7057 18.75 23.1057 18.75 22.7057 19.15C22.3057 19.45 22.3057 20.05 22.7057 20.45L24.6057 22.55Z" fill="#4F75FA"/><path d="M29.6057 26.2502L25.2057 31.0502L23.9057 29.6502C23.6057 29.2502 23.0057 29.2502 22.6057 29.6502C22.2057 29.9502 22.2057 30.5502 22.6057 30.9502L24.6057 33.0502C24.8057 33.2502 25.0057 33.3502 25.3057 33.3502C25.6057 33.3502 25.8057 33.2502 26.0057 33.0502L31.0057 27.5502C31.3057 27.1502 31.3057 26.6502 30.9057 26.2502C30.5057 25.8502 29.9057 25.9502 29.6057 26.2502Z" fill="#4F75FA"/><path d="M29.6057 36.7501L25.3057 41.4501L23.9057 40.0501C23.6057 39.6501 23.0057 39.6501 22.6057 40.0501C22.2057 40.3501 22.2057 40.9501 22.6057 41.3501L24.6057 43.4501C24.8057 43.6501 25.0057 43.7501 25.3057 43.7501C25.6057 43.7501 25.8057 43.6501 26.0057 43.4501L31.0057 37.9501C31.3057 37.5501 31.3057 37.0501 30.9057 36.6501C30.5057 36.3501 29.9057 36.3501 29.6057 36.7501Z" fill="#4F75FA"/><path d="M55.8057 60.05H6.80566C4.00566 60.05 1.80566 57.85 1.80566 55.05V6.05005C1.80566 3.25005 4.00566 1.05005 6.80566 1.05005H55.8057C58.6057 1.05005 60.8057 3.25005 60.8057 6.05005V55.05C60.8057 57.85 58.6057 60.05 55.8057 60.05Z" stroke="#4F75FA" stroke-width="2" stroke-miterlimit="10"/></svg>