<svg xmlns="http://www.w3.org/2000/svg" width="32" height="51" fill="none"><path d="M5.376 50.267h18.706a4.656 4.656 0 0 0 4.65-4.651v-9.508a4.656 4.656 0 0 0-4.65-4.651h-1.184a1.542 1.542 0 0 1-1.387-.857l-5.344-10.688a1.55 1.55 0 0 0-1.386-.857h-1.55v-3.202a11.722 11.722 0 0 0 3.165-.882l1.531 2.298c3.062 4.592 9.556 13.228 13.452 1.332a1.55 1.55 0 0 0-1.096-2.647 4.656 4.656 0 0 1-4.65-4.65v-1.55h4.65a1.55 1.55 0 0 0 1.55-1.551v-6.2a1.55 1.55 0 0 0-1.55-1.55H5.376a4.656 4.656 0 0 0-4.65 4.65v6.2a4.658 4.658 0 0 0 3.1 4.386v3.633a4.658 4.658 0 0 0-3.1 4.384v21.91a4.656 4.656 0 0 0 4.65 4.65zm18.706-3.101H5.376c-.855 0-1.55-.696-1.55-1.55v-4.754h21.806v4.754c0 .854-.695 1.55-1.55 1.55zm2.22-29.213a5.638 5.638 0 0 1-5.794-2.404l-1.431-2.146 3.455-2.303v.204a7.753 7.753 0 0 0 3.77 6.649zm2.43-11.3h-3.1v-3.1h3.1v3.1zM3.827 5.103c0-.855.695-1.55 1.55-1.55h17.156v3.82L16.5 11.396a8.662 8.662 0 0 1-4.82 1.46 1.55 1.55 0 0 0-1.55 1.55v4.65H6.926v-4.65a1.55 1.55 0 0 0-1.55-1.55c-.855 0-1.55-.697-1.55-1.551V5.103zm1.55 17.053h8.447l4.915 9.83a4.626 4.626 0 0 0 4.16 2.571h1.184c.855 0 1.55.696 1.55 1.55v1.654H3.826V23.706c0-.855.695-1.55 1.55-1.55z" fill="#2476FE"/></svg>